HIERARCHY
ROOT Hips
{
	OFFSET 0.000000 103.266502 0.000000
	CHANNELS 6 Xposition Yposition Zposition Xrotation Yrotation Zrotation 
	JOINT Spine
	{
		OFFSET -0.002400 12.777504 0.315300
		CHANNELS 3 Xrotation Yrotation Zrotation
		JOINT Spine1
		{
			OFFSET -0.002067 5.816869 0.032633
			CHANNELS 3 Xrotation Yrotation Zrotation
			JOINT Spine1_split
			{
				OFFSET -0.002067 5.816869 0.032633
				CHANNELS 3 Xrotation Yrotation Zrotation
				JOINT Spine2
				{
					OFFSET -0.002067 5.816869 0.032633
					CHANNELS 3 Xrotation Yrotation Zrotation
					JOINT Neck
					{
						OFFSET -0.003700 21.199493 -0.826900
						CHANNELS 3 Xrotation Yrotation Zrotation
						JOINT Head
						{
							OFFSET 0.000000 20.442200 4.834800
							CHANNELS 3 Xrotation Yrotation Zrotation
							JOINT HeadTop_End
							{
								OFFSET 0.000000 34.668396 4.968400
								CHANNELS 3 Xrotation Yrotation Zrotation
								End Site
								{
									OFFSET 0.000000 0.000000 0.000000
								}
							}
						}
					}
					JOINT LeftShoulder
					{
						OFFSET 3.288150 8.794197 -1.372250
						CHANNELS 3 Xrotation Yrotation Zrotation
						JOINT LeftShoulder_split
						{
							OFFSET 3.288150 8.794197 -1.372250
							CHANNELS 3 Xrotation Yrotation Zrotation
							JOINT LeftArm
							{
								OFFSET 11.953299 -2.279007 -0.146200
								CHANNELS 3 Xrotation Yrotation Zrotation
								JOINT LeftForeArm
								{
									OFFSET 18.448900 0.000000 0.000000
									CHANNELS 3 Xrotation Yrotation Zrotation
									JOINT LeftHand
									{
										OFFSET 29.527798 0.000000 0.000000
										CHANNELS 3 Xrotation Yrotation Zrotation
										JOINT LeftHandThumb1
										{
											OFFSET 10.739754 -2.369614 9.225399
											CHANNELS 3 Xrotation Yrotation Zrotation
											JOINT LeftHandThumb2
											{
												OFFSET 4.926170 -2.844131 2.844125
												CHANNELS 3 Xrotation Yrotation Zrotation
												JOINT LeftHandThumb3
												{
													OFFSET 4.614891 -2.664413 2.664409
													CHANNELS 3 Xrotation Yrotation Zrotation
													JOINT LeftHandThumb4
													{
														OFFSET 4.432465 -2.559082 2.559083
														CHANNELS 3 Xrotation Yrotation Zrotation
														End Site
														{
															OFFSET 0.000000 0.000000 0.000000
														}
													}
												}
											}
										}
										JOINT LeftHandIndex1
										{
											OFFSET 26.467674 0.187653 6.405298
											CHANNELS 3 Xrotation Yrotation Zrotation
											JOINT LeftHandIndex2
											{
												OFFSET 8.792900 0.000000 0.000000
												CHANNELS 3 Xrotation Yrotation Zrotation
												JOINT LeftHandIndex3
												{
													OFFSET 10.075203 0.000000 0.000000
													CHANNELS 3 Xrotation Yrotation Zrotation
													End Site
													{
														OFFSET 0.000000 0.000000 0.000000
													}
												}
											}
										}
										JOINT LeftHandMiddle1
										{
											OFFSET 25.764404 0.000000 0.000000
											CHANNELS 3 Xrotation Yrotation Zrotation
											JOINT LeftHandMiddle2
											{
												OFFSET 9.393974 0.000000 0.000000
												CHANNELS 3 Xrotation Yrotation Zrotation
												JOINT LeftHandMiddle3
												{
													OFFSET 10.771950 0.000000 0.000000
													CHANNELS 3 Xrotation Yrotation Zrotation
													End Site
													{
														OFFSET 0.000000 0.000000 0.000000
													}
												}
											}
										}
										JOINT LeftHandRing1
										{
											OFFSET 24.660927 0.144547 -6.225808
											CHANNELS 3 Xrotation Yrotation Zrotation
											JOINT LeftHandRing2
											{
												OFFSET 9.393799 0.000000 0.000000
												CHANNELS 3 Xrotation Yrotation Zrotation
												JOINT LeftHandRing3
												{
													OFFSET 9.928497 0.000000 0.000000
													CHANNELS 3 Xrotation Yrotation Zrotation
													End Site
													{
														OFFSET 0.000000 0.000000 0.000000
													}
												}
											}
										}
										JOINT LeftHandPinky1
										{
											OFFSET 23.655350 0.125290 -12.815412
											CHANNELS 3 Xrotation Yrotation Zrotation
											JOINT LeftHandPinky2
											{
												OFFSET 8.425102 0.000000 0.000000
												CHANNELS 3 Xrotation Yrotation Zrotation
												JOINT LeftHandPinky3
												{
													OFFSET 8.147003 0.000000 0.000000
													CHANNELS 3 Xrotation Yrotation Zrotation
													End Site
													{
														OFFSET 0.000000 0.000000 0.000000
													}
												}
											}
										}
									}
								}
							}
						}
					}
					JOINT RightShoulder
					{
						OFFSET -3.249400 8.794197 -1.372250
						CHANNELS 3 Xrotation Yrotation Zrotation
						JOINT RightShoulder_split
						{
							OFFSET -3.249400 8.794197 -1.372250
							CHANNELS 3 Xrotation Yrotation Zrotation
							JOINT RightArm
							{
								OFFSET -11.953299 -2.279007 -0.146200
								CHANNELS 3 Xrotation Yrotation Zrotation
								JOINT RightForeArm
								{
									OFFSET -18.448900 0.000000 0.000000
									CHANNELS 3 Xrotation Yrotation Zrotation
									JOINT RightHand
									{
										OFFSET -29.527802 0.000000 0.000000
										CHANNELS 3 Xrotation Yrotation Zrotation
										JOINT RightHandThumb1
										{
											OFFSET -10.739754 -2.369614 9.225399
											CHANNELS 3 Xrotation Yrotation Zrotation
											JOINT RightHandThumb2
											{
												OFFSET -4.926170 -2.844131 2.844125
												CHANNELS 3 Xrotation Yrotation Zrotation
												JOINT RightHandThumb3
												{
													OFFSET -4.614891 -2.664413 2.664409
													CHANNELS 3 Xrotation Yrotation Zrotation
													JOINT RightHandThumb4
													{
														OFFSET -4.432465 -2.559082 2.559083
														CHANNELS 3 Xrotation Yrotation Zrotation
														End Site
														{
															OFFSET 0.000000 0.000000 0.000000
														}
													}
												}
											}
										}
										JOINT RightHandIndex1
										{
											OFFSET -26.467674 0.187653 6.405298
											CHANNELS 3 Xrotation Yrotation Zrotation
											JOINT RightHandIndex2
											{
												OFFSET -8.792900 0.000000 0.000000
												CHANNELS 3 Xrotation Yrotation Zrotation
												JOINT RightHandIndex3
												{
													OFFSET -10.075203 0.000000 0.000000
													CHANNELS 3 Xrotation Yrotation Zrotation
													End Site
													{
														OFFSET 0.000000 0.000000 0.000000
													}
												}
											}
										}
										JOINT RightHandMiddle1
										{
											OFFSET -25.764404 0.000000 0.000000
											CHANNELS 3 Xrotation Yrotation Zrotation
											JOINT RightHandMiddle2
											{
												OFFSET -9.393974 0.000000 0.000000
												CHANNELS 3 Xrotation Yrotation Zrotation
												JOINT RightHandMiddle3
												{
													OFFSET -10.771950 0.000000 0.000000
													CHANNELS 3 Xrotation Yrotation Zrotation
													End Site
													{
														OFFSET 0.000000 0.000000 0.000000
													}
												}
											}
										}
										JOINT RightHandRing1
										{
											OFFSET -24.660927 0.144547 -6.225808
											CHANNELS 3 Xrotation Yrotation Zrotation
											JOINT RightHandRing2
											{
												OFFSET -9.393799 0.000000 0.000000
												CHANNELS 3 Xrotation Yrotation Zrotation
												JOINT RightHandRing3
												{
													OFFSET -9.928497 0.000000 0.000000
													CHANNELS 3 Xrotation Yrotation Zrotation
													End Site
													{
														OFFSET 0.000000 0.000000 0.000000
													}
												}
											}
										}
										JOINT RightHandPinky1
										{
											OFFSET -23.655350 0.125290 -12.815412
											CHANNELS 3 Xrotation Yrotation Zrotation
											JOINT RightHandPinky2
											{
												OFFSET -8.425102 0.000000 0.000000
												CHANNELS 3 Xrotation Yrotation Zrotation
												JOINT RightHandPinky3
												{
													OFFSET -8.147003 0.000000 0.000000
													CHANNELS 3 Xrotation Yrotation Zrotation
													End Site
													{
														OFFSET 0.000000 0.000000 0.000000
													}
												}
											}
										}
									}
								}
							}
						}
					}
				}
			}
		}
	}
	JOINT LeftUpLeg
	{
		OFFSET 11.394100 -6.187798 -0.413800
		CHANNELS 3 Xrotation Yrotation Zrotation
		JOINT LeftLeg
		{
			OFFSET 0.430247 -32.302673 3.732800
			CHANNELS 3 Xrotation Yrotation Zrotation
			JOINT LeftFoot
			{
				OFFSET -0.430247 -48.264931 -6.423300
				CHANNELS 3 Xrotation Yrotation Zrotation
				JOINT LeftToeBase
				{
					OFFSET 4.230900 -16.068199 23.438400
					CHANNELS 3 Xrotation Yrotation Zrotation
					JOINT LeftToe_End
					{
						OFFSET 4.510700 0.695400 19.974600
						CHANNELS 3 Xrotation Yrotation Zrotation
						End Site
						{
							OFFSET 0.000000 0.000000 0.000000
						}
					}
				}
			}
		}
	}
	JOINT RightUpLeg
	{
		OFFSET -11.333700 -6.187798 -0.413800
		CHANNELS 3 Xrotation Yrotation Zrotation
		JOINT RightLeg
		{
			OFFSET -0.430392 -32.302628 3.733000
			CHANNELS 3 Xrotation Yrotation Zrotation
			JOINT RightFoot
			{
				OFFSET 0.430392 -48.264973 -6.423500
				CHANNELS 3 Xrotation Yrotation Zrotation
				JOINT RightToeBase
				{
					OFFSET -4.230900 -16.068199 23.438400
					CHANNELS 3 Xrotation Yrotation Zrotation
					JOINT RightToe_End
					{
						OFFSET -4.510700 0.695400 19.974600
						CHANNELS 3 Xrotation Yrotation Zrotation
						End Site
						{
							OFFSET 0.000000 0.000000 0.000000
						}
					}
				}
			}
		}
	}
}
MOTION
Frames: 6
Frame Time: 0.016667
0.001379 85.979012 -0.230190 8.135441 -10.982391 3.280191 8.211806 1.723217 -1.668160 6.501515 1.669130 -0.600553 0.000000 0.000000 0.000000 6.503129 1.665275 -0.587175 -1.740219 -0.081392 0.346732 -18.113892 -0.499812 1.304438 0.000001 0.000000 0.000000 2.609668 -14.773708 -9.661127 0.000000 0.000000 0.000000 -25.061846 -6.032397 -45.944985 0.000009 -124.725743 0.000001 -67.570344 18.900132 22.799803 39.578723 -17.197332 -21.086423 11.235999 23.988439 2.901699 3.118798 9.520993 4.222316 -0.000000 0.000001 0.000003 3.600020 6.051847 -61.463479 4.128148 6.308896 -66.366196 0.000000 0.000001 -0.000000 2.451423 5.270984 -49.859923 3.793762 6.152675 -63.285937 0.000000 0.000000 -0.000001 2.452896 5.272236 -49.876056 3.792038 6.151807 -63.269770 0.000001 0.000001 -0.000001 7.187307 7.991508 -61.391769 4.144318 2.228342 -66.583218 0.000001 -0.000000 -0.000001 1.602759 8.845880 9.965477 0.000000 0.000000 0.000000 3.934445 4.254982 41.144383 0.031893 89.362063 -0.031625 32.702044 19.603377 -22.590434 29.376439 16.962625 20.541343 9.559520 -25.704471 -5.659322 1.488512 -8.233519 -5.339834 0.000001 0.000000 0.000000 2.155492 -5.036566 46.317166 4.033412 -6.309978 65.142909 0.000001 0.000000 0.000000 1.448231 -4.252502 37.599700 3.476847 -6.022577 59.964792 -0.000000 0.000000 -0.000001 1.448241 -4.252501 37.599700 3.476832 -6.022585 59.964799 0.000000 -0.000003 -0.000001 2.155493 -5.036568 46.317162 4.033412 -6.309981 65.142902 -0.000002 -0.000001 -0.000002 -58.666066 2.382009 20.781718 48.343109 3.876683 6.078467 5.263110 0.150461 -18.595154 0.000002 -0.000008 -0.000005 0.000000 0.000001 -0.000000 -38.913172 4.315695 -29.290962 51.879877 -1.773229 -1.574527 -14.224089 -4.602762 25.638650 -0.002736 -0.000012 0.000005 0.000000 -0.000001 -0.000000 
0.073785 86.040428 -0.163622 8.161740 -10.963941 3.208317 8.188543 1.715925 -1.690284 6.485266 1.665929 -0.610207 0.000000 0.000000 0.000000 6.486871 1.662227 -0.596724 -1.712113 -0.092270 0.384983 -18.110407 -0.529392 1.344542 0.000001 -0.000001 0.000000 2.607225 -14.764984 -9.614779 0.000000 0.000000 0.000000 -25.050234 -6.005741 -46.040885 0.000027 -124.877018 0.000033 -67.329648 18.877837 22.729317 39.578730 -17.197330 -21.086423 11.236002 23.988441 2.901698 3.118804 9.520993 4.222315 -0.000000 -0.000001 -0.000000 3.600023 6.051846 -61.463479 4.128150 6.308894 -66.366196 0.000000 0.000000 -0.000001 2.451424 5.270981 -49.859923 3.793761 6.152675 -63.285931 -0.000000 0.000002 0.000001 2.452900 5.272234 -49.876056 3.792040 6.151808 -63.269770 0.000000 0.000002 -0.000002 7.187308 7.991504 -61.391769 4.144319 2.228337 -66.583218 -0.000000 0.000002 -0.000000 1.606115 8.884873 9.946591 0.000000 0.000000 0.000000 4.076246 4.257992 41.187656 -0.003509 89.427168 0.003743 32.911868 19.509611 -22.720512 29.376442 16.962628 20.541341 9.559523 -25.704468 -5.659326 1.488515 -8.233520 -5.339833 0.000001 -0.000000 -0.000000 2.155497 -5.036564 46.317162 4.033409 -6.309974 65.142909 -0.000002 0.000001 0.000002 1.448240 -4.252500 37.599696 3.476847 -6.022581 59.964792 -0.000000 0.000000 0.000002 1.448247 -4.252500 37.599700 3.476834 -6.022583 59.964806 -0.000000 0.000000 -0.000001 2.155498 -5.036566 46.317162 4.033409 -6.309980 65.142916 0.000001 0.000001 0.000001 -58.679350 2.438220 20.744698 48.330070 3.888869 6.157048 5.216953 0.154878 -18.547672 0.000123 -0.000003 -0.000007 0.000000 0.000001 0.000000 -38.727029 4.229360 -29.290177 51.604921 -1.815358 -1.533269 -14.108633 -4.588078 25.697021 -0.028718 0.000016 0.000003 0.000000 -0.000001 0.000000 
0.142080 86.078644 -0.106578 8.220469 -10.969059 3.129161 8.165726 1.713111 -1.717718 6.469515 1.666602 -0.622083 0.000000 0.000000 0.000000 6.471180 1.662707 -0.608365 -1.660630 -0.094396 0.408573 -18.088766 -0.528534 1.378605 -0.000000 0.000000 0.000000 2.606481 -14.776925 -9.549424 0.000000 0.000000 0.000000 -25.079249 -5.936111 -46.237464 0.000031 -124.947615 0.000032 -67.140398 18.934352 22.684778 39.578726 -17.197330 -21.086421 11.236002 23.988442 2.901705 3.118801 9.520993 4.222316 0.000001 -0.000002 0.000002 3.600020 6.051847 -61.463479 4.128148 6.308892 -66.366196 0.000000 0.000001 0.000000 2.451424 5.270983 -49.859923 3.793759 6.152673 -63.285937 0.000002 -0.000001 0.000002 2.452896 5.272238 -49.876056 3.792041 6.151807 -63.269770 -0.000001 -0.000001 -0.000000 7.187302 7.991509 -61.391769 4.144319 2.228340 -66.583218 -0.000001 -0.000000 -0.000004 1.612929 8.972300 9.892404 0.000000 0.000000 0.000000 4.280586 4.276495 41.166588 -0.010451 89.494063 0.010162 33.037526 19.369489 -22.853900 29.376442 16.962626 20.541338 9.559523 -25.704469 -5.659326 1.488513 -8.233520 -5.339833 0.000001 -0.000000 0.000000 2.155492 -5.036564 46.317162 4.033412 -6.309979 65.142902 0.000002 0.000000 -0.000001 1.448235 -4.252502 37.599700 3.476847 -6.022578 59.964799 -0.000001 -0.000000 0.000000 1.448243 -4.252501 37.599706 3.476833 -6.022582 59.964799 0.000000 -0.000001 -0.000002 2.155493 -5.036567 46.317162 4.033412 -6.309980 65.142909 -0.000001 0.000001 0.000002 -58.747427 2.418489 20.747325 48.374057 3.944138 6.189876 5.172061 0.159550 -18.507496 0.000085 0.000003 -0.000002 0.000000 0.000000 0.000000 -38.655391 4.112029 -29.266705 51.386320 -1.787819 -1.534735 -13.999986 -4.574156 25.749692 -0.059026 -0.000007 0.000004 0.000000 0.000003 0.000000 
0.204589 86.099586 -0.055800 8.268546 -10.999524 3.079428 8.144171 1.713809 -1.746686 6.454645 1.669951 -0.635077 0.000000 0.000000 0.000000 6.456431 1.665760 -0.621080 -1.598632 -0.092581 0.422501 -18.056073 -0.517750 1.411531 0.000001 -0.000000 0.000000 2.606921 -14.801040 -9.475214 0.000000 0.000000 0.000000 -25.130214 -5.847827 -46.486435 -0.000006 -124.971247 -0.000023 -66.982019 19.038357 22.658772 39.578730 -17.197330 -21.086425 11.235998 23.988444 2.901710 3.118806 9.520994 4.222311 -0.000002 -0.000002 0.000000 3.600022 6.051848 -61.463486 4.128150 6.308893 -66.366196 -0.000001 0.000001 -0.000001 2.451420 5.270983 -49.859927 3.793758 6.152675 -63.285931 0.000002 0.000001 0.000001 2.452896 5.272237 -49.876060 3.792039 6.151809 -63.269770 -0.000000 0.000001 -0.000001 7.187304 7.991507 -61.391776 4.144319 2.228339 -66.583218 0.000001 0.000001 0.000001 1.621829 9.085368 9.820730 0.000000 0.000000 0.000000 4.518113 4.299213 41.105219 0.067062 89.563123 -0.067142 33.107225 19.210745 -22.984638 29.376442 16.962623 20.541343 9.559525 -25.704471 -5.659323 1.488509 -8.233519 -5.339834 -0.000000 -0.000000 -0.000000 2.155492 -5.036565 46.317162 4.033410 -6.309976 65.142909 0.000001 0.000002 0.000001 1.448232 -4.252501 37.599693 3.476849 -6.022579 59.964792 -0.000001 -0.000000 0.000000 1.448243 -4.252501 37.599703 3.476832 -6.022580 59.964799 0.000000 -0.000001 -0.000001 2.155491 -5.036567 46.317166 4.033412 -6.309979 65.142902 -0.000001 0.000000 0.000000 -58.777855 2.330931 20.761656 48.445654 4.035289 6.148010 5.111627 0.166455 -18.484737 0.000050 0.000002 0.000006 -0.000000 0.000001 0.000000 -38.613966 4.050002 -29.253956 51.227464 -1.747167 -1.539981 -13.909725 -4.564145 25.801642 -0.085864 0.000004 0.000007 0.000000 0.000000 0.000000 
0.261890 86.103546 -0.005841 8.267927 -11.056481 3.042699 8.125416 1.718853 -1.777511 6.441682 1.676749 -0.649059 0.000000 0.000000 0.000000 6.443583 1.672276 -0.634775 -1.530190 -0.088176 0.425717 -18.010340 -0.506130 1.446723 -0.000001 -0.000000 -0.000000 2.608805 -14.838622 -9.394288 0.000000 0.000000 0.000000 -25.202300 -5.748885 -46.782261 -0.000027 -124.946290 -0.000017 -66.856439 19.194331 22.657845 39.578730 -17.197330 -21.086426 11.236000 23.988442 2.901700 3.118801 9.520993 4.222314 -0.000003 0.000000 0.000002 3.600024 6.051845 -61.463486 4.128149 6.308893 -66.366196 0.000001 0.000003 -0.000001 2.451423 5.270982 -49.859927 3.793756 6.152675 -63.285937 0.000001 0.000000 -0.000000 2.452896 5.272236 -49.876063 3.792040 6.151808 -63.269777 0.000000 -0.000003 -0.000004 7.187305 7.991507 -61.391776 4.144317 2.228342 -66.583218 0.000000 -0.000002 -0.000001 1.632837 9.221982 9.735142 0.000000 0.000000 0.000000 4.785612 4.318987 40.998385 0.010040 89.634984 -0.009830 33.108376 19.043998 -23.106212 29.376442 16.962626 20.541338 9.559523 -25.704469 -5.659322 1.488513 -8.233520 -5.339835 0.000002 -0.000000 -0.000000 2.155497 -5.036565 46.317159 4.033409 -6.309980 65.142909 0.000000 0.000001 0.000002 1.448237 -4.252501 37.599696 3.476851 -6.022579 59.964792 -0.000001 -0.000001 -0.000002 1.448246 -4.252500 37.599700 3.476833 -6.022581 59.964799 0.000000 -0.000003 -0.000001 2.155496 -5.036568 46.317155 4.033410 -6.309981 65.142916 -0.000001 -0.000003 -0.000002 -58.753998 2.198088 20.788236 48.560914 4.175104 6.061117 5.037671 0.175725 -18.474227 0.000075 0.000000 -0.000002 -0.000000 -0.000001 0.000000 -38.545763 4.043037 -29.259533 51.121746 -1.700676 -1.523509 -13.849395 -4.561077 25.852517 -0.101890 -0.000005 -0.000011 0.000000 -0.000001 0.000000 
0.319688 86.104134 0.034272 8.297529 -11.094603 3.006484 8.110961 1.728254 -1.809875 6.431520 1.687191 -0.663701 0.000000 0.000000 0.000000 6.433496 1.682590 -0.649156 -1.461466 -0.083128 0.418179 -17.951766 -0.504443 1.486980 0.000001 0.000000 0.000000 2.612178 -14.888081 -9.310859 0.000000 0.000000 0.000000 -25.290133 -5.650530 -47.109222 -0.000003 -124.877523 0.000010 -66.762435 19.398999 22.685734 39.578730 -17.197329 -21.086420 11.236002 23.988446 2.901703 3.118800 9.520993 4.222312 0.000000 -0.000002 0.000001 3.600023 6.051843 -61.463479 4.128149 6.308896 -66.366196 0.000000 0.000000 -0.000001 2.451421 5.270978 -49.859927 3.793757 6.152676 -63.285937 0.000000 -0.000000 0.000003 2.452895 5.272233 -49.876053 3.792040 6.151808 -63.269770 0.000000 0.000001 0.000001 7.187305 7.991504 -61.391769 4.144316 2.228339 -66.583218 -0.000001 0.000003 0.000000 1.645610 9.375551 9.642421 0.000000 0.000000 0.000000 5.074289 4.329375 40.844333 -0.126200 89.709638 0.126345 33.036549 18.884793 -23.212236 29.376439 16.962625 20.541338 9.559522 -25.704468 -5.659323 1.488513 -8.233520 -5.339833 -0.000002 0.000000 -0.000000 2.155491 -5.036567 46.317155 4.033412 -6.309980 65.142909 -0.000001 -0.000002 -0.000003 1.448231 -4.252504 37.599696 3.476846 -6.022582 59.964792 -0.000000 -0.000001 0.000001 1.448241 -4.252501 37.599700 3.476834 -6.022583 59.964799 0.000000 -0.000002 -0.000003 2.155491 -5.036567 46.317159 4.033412 -6.309979 65.142909 0.000000 0.000001 0.000002 -58.779659 2.079473 20.794982 48.666519 4.278294 6.006362 4.975339 0.183583 -18.466262 0.000086 0.000004 0.000000 0.000000 -0.000000 -0.000000 -38.548211 3.982262 -29.219809 51.025929 -1.663588 -1.604776 -13.775693 -4.558006 25.929620 -0.123728 0.000014 -0.000007 0.000000 0.000000 0.000000 
